<?xml version="1.0" encoding="utf-8"?>
<!-- Generator: Adobe Illustrator 26.1.0, SVG Export Plug-In . SVG Version: 6.00 Build 0)  -->
<svg version="1.1" id="Layer_1" xmlns="http://www.w3.org/2000/svg" xmlns:xlink="http://www.w3.org/1999/xlink" x="0px" y="0px"
	 viewBox="0 0 1125 288" style="enable-background:new 0 0 1125 288;" xml:space="preserve">
<g>
	<g>
		<path d="M128.38,66.28v177.16h-24.51V66.28H54V44.56h124.52v21.73H128.38z"/>
	</g>
	<g>
		<path d="M328.1,44.56v198.89h-24.51v-95.82h-68.25v95.82h-24.51V44.56h24.51v81.34h68.25V44.56H328.1z"/>
	</g>
	<g>
		<path d="M374.34,243.44V44.56h102.79v21.73h-78.28v62.4h73.82v21.73h-73.82v71.31h81.62v21.73H374.34z"/>
	</g>
	<g>
		<path d="M706.93,96.09h-24.51c0-23.58-10.31-35.37-30.92-35.37c-21.91,0-32.87,10.77-32.87,32.31c0,15.23,8.08,26.37,24.24,33.43
			c15.04,5.76,30.17,11.52,45.4,17.27c16.16,9.29,24.24,24.14,24.24,44.57c0,20.99-6.78,36.59-20.34,46.8
			c-10.96,8.18-24.79,12.26-41.5,12.26c-22.28,0-38.16-5.75-47.63-17.27c-8.35-10.21-12.53-26.55-12.53-49.03H615
			c0,14.67,1.76,25.17,5.29,31.48c5.38,9.85,16.06,14.76,32.04,14.76c9.84,0,18.06-3.25,24.65-9.75c6.59-6.5,9.89-14.95,9.89-25.35
			c0-15.22-8.08-26.55-24.24-33.98c-15.04-5.75-30.18-11.6-45.4-17.55C601.08,131.19,593,116.14,593,95.53
			c0-13.55,3.43-24.97,10.31-34.27c9.84-13.74,25.81-20.61,47.91-20.61C687.8,40.66,706.37,59.14,706.93,96.09z"/>
	</g>
	<g>
		<path d="M751.22,243.44V44.56h24.51v198.89H751.22z"/>
	</g>
	<g>
		<path d="M882.42,66.28v177.16h-24.51V66.28h-49.86V44.56h124.52v21.73H882.42z"/>
	</g>
	<g>
		<path d="M964.87,243.44V44.56h102.79v21.73h-78.28v62.4h73.82v21.73h-73.82v71.31H1071v21.73H964.87z"/>
	</g>
</g>
</svg>
